# xmcd
#
# Track frame offsets:
#	150
#	28745
#	45135
#	61082
#	78532
#	97262
#	113722
#	136130
#	160340
#	178872
#	197507
# Disc length: 3043 seconds
# Revision: 13
# Processed by: cddbd v1.5.2PL0 Copyright (c) Steve Scherf et al.
#
# Submitted via: libkcddb 0.21
#
DISCID=8a0be10b
DTITLE=Shakira - Shakira Mtv Unplugged
DYEAR=2000
DGENRE=Rock
TTITLE0=Octavo Dia
TTITLE1=Si Te Vas
TTITLE2=Donde Estan Los Ladrones
TTITLE3=Moscas En La Casa
TTITLE4=Ciega, Sordomuda
TTITLE5=Inevitable
TTITLE6=Estoy Aqui
TTITLE7=Tu
TTITLE8=Sombra De Ti
TTITLE9=No Creo
TTITLE10=Ojos Asi
EXTD=
EXTT0=
EXTT1=
EXTT2=
EXTT3=
EXTT4=
EXTT5=
EXTT6=
EXTT7=
EXTT8=
EXTT9=
EXTT10=
PLAYORDER=
